<mxfile host="app.diagrams.net" modified="2022-09-12T02:07:49.537Z" agent="5.0 (X11; Linux x86_64) AppleWebKit/537.36 (KHTML, like Gecko) Chrome/105.0.0.0 Safari/537.36" etag="AqCGNgOKRYAg5p6wuFBe" version="14.9.3" type="github">
  <diagram id="j8GvckZx_6Sl9bIY4hgR" name="Page-1">
    <mxGraphModel dx="648" dy="617" grid="1" gridSize="10" guides="1" tooltips="1" connect="1" arrows="1" fold="1" page="1" pageScale="1" pageWidth="850" pageHeight="1100" math="0" shadow="0">
      <root>
        <mxCell id="0" />
        <mxCell id="1" parent="0" />
        <mxCell id="3NYDXaBPOlIF-OQBGQYG-1" value="i2p Node A" style="shape=cylinder3;whiteSpace=wrap;html=1;boundedLbl=1;backgroundOutline=1;size=15;" vertex="1" parent="1">
          <mxGeometry x="90" y="320" width="90" height="120" as="geometry" />
        </mxCell>
        <mxCell id="3NYDXaBPOlIF-OQBGQYG-2" value="i2p Node B" style="shape=cylinder3;whiteSpace=wrap;html=1;boundedLbl=1;backgroundOutline=1;size=15;" vertex="1" parent="1">
          <mxGeometry x="400" y="320" width="90" height="120" as="geometry" />
        </mxCell>
        <mxCell id="3NYDXaBPOlIF-OQBGQYG-3" value="" style="endArrow=classic;html=1;exitX=1;exitY=0;exitDx=0;exitDy=37.5;exitPerimeter=0;entryX=0;entryY=0;entryDx=0;entryDy=37.5;entryPerimeter=0;" edge="1" parent="1" source="3NYDXaBPOlIF-OQBGQYG-1" target="3NYDXaBPOlIF-OQBGQYG-2">
          <mxGeometry width="50" height="50" relative="1" as="geometry">
            <mxPoint x="210" y="410" as="sourcePoint" />
            <mxPoint x="270" y="360" as="targetPoint" />
          </mxGeometry>
        </mxCell>
        <mxCell id="3NYDXaBPOlIF-OQBGQYG-5" value="" style="endArrow=classic;html=1;exitX=1;exitY=0;exitDx=0;exitDy=37.5;exitPerimeter=0;entryX=0;entryY=0;entryDx=0;entryDy=37.5;entryPerimeter=0;" edge="1" parent="1">
          <mxGeometry width="50" height="50" relative="1" as="geometry">
            <mxPoint x="400" y="410" as="sourcePoint" />
            <mxPoint x="180" y="410" as="targetPoint" />
          </mxGeometry>
        </mxCell>
        <mxCell id="3NYDXaBPOlIF-OQBGQYG-7" value="TOR Node" style="shape=cylinder3;whiteSpace=wrap;html=1;boundedLbl=1;backgroundOutline=1;size=15;" vertex="1" parent="1">
          <mxGeometry x="400" y="160" width="90" height="120" as="geometry" />
        </mxCell>
        <mxCell id="3NYDXaBPOlIF-OQBGQYG-8" value="" style="endArrow=classic;startArrow=classic;html=1;exitX=0.5;exitY=0;exitDx=0;exitDy=0;exitPerimeter=0;" edge="1" parent="1" source="3NYDXaBPOlIF-OQBGQYG-2">
          <mxGeometry width="50" height="50" relative="1" as="geometry">
            <mxPoint x="444.5" y="330" as="sourcePoint" />
            <mxPoint x="444.5" y="280" as="targetPoint" />
          </mxGeometry>
        </mxCell>
        <mxCell id="3NYDXaBPOlIF-OQBGQYG-10" value="127.0.0.1:8080&lt;br&gt;I2P Client Tunnel&amp;nbsp;&lt;br&gt;Points at *.b32.i2p" style="text;html=1;align=center;verticalAlign=middle;resizable=0;points=[];autosize=1;strokeColor=none;" vertex="1" parent="1">
          <mxGeometry x="490" y="355" width="110" height="50" as="geometry" />
        </mxCell>
        <mxCell id="3NYDXaBPOlIF-OQBGQYG-12" value="Webserver" style="shape=cylinder3;whiteSpace=wrap;html=1;boundedLbl=1;backgroundOutline=1;size=15;" vertex="1" parent="1">
          <mxGeometry x="90" y="500" width="90" height="120" as="geometry" />
        </mxCell>
        <mxCell id="3NYDXaBPOlIF-OQBGQYG-13" value="" style="endArrow=classic;startArrow=classic;html=1;" edge="1" parent="1">
          <mxGeometry width="50" height="50" relative="1" as="geometry">
            <mxPoint x="444.5" y="160" as="sourcePoint" />
            <mxPoint x="445" y="80" as="targetPoint" />
          </mxGeometry>
        </mxCell>
        <mxCell id="3NYDXaBPOlIF-OQBGQYG-16" value="*.onion" style="ellipse;shape=cloud;whiteSpace=wrap;html=1;" vertex="1" parent="1">
          <mxGeometry x="385" width="120" height="80" as="geometry" />
        </mxCell>
        <mxCell id="3NYDXaBPOlIF-OQBGQYG-23" value="" style="endArrow=classic;startArrow=classic;html=1;" edge="1" parent="1">
          <mxGeometry width="50" height="50" relative="1" as="geometry">
            <mxPoint x="134.86" y="500" as="sourcePoint" />
            <mxPoint x="134.86" y="440" as="targetPoint" />
          </mxGeometry>
        </mxCell>
        <mxCell id="3NYDXaBPOlIF-OQBGQYG-24" value="127.0.0.1:8081&lt;br&gt;I2p Hidden Service" style="text;html=1;strokeColor=none;fillColor=none;align=center;verticalAlign=middle;whiteSpace=wrap;rounded=0;" vertex="1" parent="1">
          <mxGeometry x="160" y="460" width="40" height="20" as="geometry" />
        </mxCell>
        <mxCell id="3NYDXaBPOlIF-OQBGQYG-26" value="*.b32.i2p&lt;br&gt;Destination" style="text;html=1;align=center;verticalAlign=middle;resizable=0;points=[];autosize=1;strokeColor=none;" vertex="1" parent="1">
          <mxGeometry x="250" y="365" width="80" height="30" as="geometry" />
        </mxCell>
        <mxCell id="3NYDXaBPOlIF-OQBGQYG-18" value="127.0.0.1:8080&lt;br&gt;Hidden Service" style="text;html=1;strokeColor=none;fillColor=none;align=center;verticalAlign=middle;whiteSpace=wrap;rounded=0;" vertex="1" parent="1">
          <mxGeometry x="520" y="205" width="40" height="30" as="geometry" />
        </mxCell>
      </root>
    </mxGraphModel>
  </diagram>
</mxfile>
